# xmcd CD database file
#
# Track frame offsets:
#	150
#	3255
#	19992
#	36215
#	59275
#	74155
#	92005
#	106632
#	123147
#	140232
#	157295
#	172970
#
# Disc length: 2558 seconds
#
# Revision: 0
# Processed by: cddbd v1.5.1PL0 Copyright (c) Steve Scherf et al.
# Submitted via: CDex 1.51
#
DISCID=a209fc0c
DTITLE=アグネス・チャン - カナダより愛をこめて(From Canada With Love)
DYEAR=1900
DGENRE=JPop
TTITLE0=イントロ・ダクション
TTITLE1=似たものどうし
TTITLE2=鉛筆で書いたラブレター
TTITLE3=雨の月曜日
TTITLE4=青い靴と海の砂
TTITLE5=明日帰ります
TTITLE6=花のささやき
TTITLE7=小さな風船
TTITLE8=瞳のおしゃべり
TTITLE9=夢の中で
TTITLE10=心の架け橋
TTITLE11=卒業
EXTD=
EXTT0=
EXTT1=
EXTT2=
EXTT3=
EXTT4=
EXTT5=
EXTT6=
EXTT7=
EXTT8=
EXTT9=
EXTT10=
EXTT11=
PLAYORDER=
